<svg width="20" height="21" viewBox="0 0 20 21" fill="none" xmlns="http://www.w3.org/2000/svg">
<path d="M1 9.56578C1 8.99143 1 8.70425 1.07403 8.43978C1.1396 8.20552 1.24737 7.98518 1.39203 7.78959C1.55534 7.56879 1.78202 7.39248 2.23539 7.03986L9.0177 1.76473C9.36902 1.49148 9.54468 1.35485 9.73865 1.30233C9.9098 1.25599 10.0902 1.25599 10.2613 1.30233C10.4553 1.35485 10.631 1.49148 10.9823 1.76473L17.7646 7.03986C18.218 7.39248 18.4447 7.56879 18.608 7.78959C18.7526 7.98518 18.8604 8.20552 18.926 8.43978C19 8.70425 19 8.99143 19 9.56578V16.8007C19 17.9208 19 18.4809 18.782 18.9087C18.5903 19.285 18.2843 19.591 17.908 19.7827C17.4802 20.0007 16.9201 20.0007 15.8 20.0007H4.2C3.07989 20.0007 2.51984 20.0007 2.09202 19.7827C1.71569 19.591 1.40973 19.285 1.21799 18.9087C1 18.4809 1 17.9208 1 16.8007V9.56578Z" stroke="#E51755" stroke-width="2" stroke-linecap="round" stroke-linejoin="round"/>
</svg>
