<svg width="24" height="24" viewBox="0 0 24 24" fill="none" xmlns="http://www.w3.org/2000/svg">
<path d="M16 2.25H10C7.38 2.25 5.25 4.38 5.25 7V7.25H4C3.59 7.25 3.25 7.59 3.25 8C3.25 8.41 3.59 8.75 4 8.75H5.25V11.25H4C3.59 11.25 3.25 11.59 3.25 12C3.25 12.41 3.59 12.75 4 12.75H5.25V15.25H4C3.59 15.25 3.25 15.59 3.25 16C3.25 16.41 3.59 16.75 4 16.75H5.25V17C5.25 19.62 7.38 21.75 10 21.75H16C18.62 21.75 20.75 19.62 20.75 17V7C20.75 4.38 18.62 2.25 16 2.25ZM19.25 17C19.25 18.79 17.79 20.25 16 20.25H10C8.21 20.25 6.75 18.79 6.75 17V7C6.75 5.21 8.21 3.75 10 3.75H16C17.79 3.75 19.25 5.21 19.25 7V17Z" fill="#091230"/>
<path d="M9 5.25C8.59 5.25 8.25 5.59 8.25 6V18C8.25 18.41 8.59 18.75 9 18.75C9.41 18.75 9.75 18.41 9.75 18V6C9.75 5.59 9.41 5.25 9 5.25Z" fill="#091230"/>
<path d="M17 16.25H12C11.59 16.25 11.25 16.59 11.25 17C11.25 17.41 11.59 17.75 12 17.75H17C17.41 17.75 17.75 17.41 17.75 17C17.75 16.59 17.41 16.25 17 16.25Z" fill="#091230"/>
<path d="M12 14.75H15C15.41 14.75 15.75 14.41 15.75 14C15.75 13.59 15.41 13.25 15 13.25H12C11.59 13.25 11.25 13.59 11.25 14C11.25 14.41 11.59 14.75 12 14.75Z" fill="#091230"/>
</svg>
