<svg width="16" height="20" viewBox="0 0 16 20" fill="none" xmlns="http://www.w3.org/2000/svg">
<path d="M12 2.25H11.46L11.11 1.56C10.71 0.75 9.88998 0.25 8.98998 0.25H6.98998C6.08998 0.25 5.27998 0.75 4.86998 1.56L4.51998 2.25H3.97998C1.90998 2.25 0.22998 3.93 0.22998 6V16C0.22998 18.07 1.90998 19.75 3.97998 19.75H11.98C14.05 19.75 15.73 18.07 15.73 16V6C15.73 3.93 14.05 2.25 11.98 2.25H12ZM6.21998 2.23C6.36998 1.93 6.66998 1.75 6.99998 1.75H8.99998C9.32998 1.75 9.62998 1.93 9.77998 2.23L10.16 2.99C10.22 3.11 10.25 3.24 10.25 3.38C10.25 3.86 9.85998 4.25 9.37998 4.25H6.61998C6.13998 4.25 5.74998 3.86 5.74998 3.38C5.74998 3.25 5.77998 3.11 5.83998 2.99L6.21998 2.23ZM14.25 16C14.25 17.24 13.24 18.25 12 18.25H3.99998C2.75998 18.25 1.74998 17.24 1.74998 16V6C1.74998 4.76 2.75998 3.75 3.99998 3.75H4.28998C4.46998 4.88 5.43998 5.75 6.61998 5.75H9.37998C10.56 5.75 11.53 4.88 11.71 3.75H12C13.24 3.75 14.25 4.76 14.25 6V16Z" fill="#091230"/>
<path d="M6.46994 7.46945L4.99994 8.93945L4.52994 8.46945C4.23994 8.17945 3.75994 8.17945 3.46994 8.46945C3.17994 8.75945 3.17994 9.23945 3.46994 9.52945L4.46994 10.5295C4.61994 10.6795 4.80994 10.7495 4.99994 10.7495C5.18994 10.7495 5.37994 10.6795 5.52994 10.5295L7.52994 8.52945C7.81994 8.23945 7.81994 7.75945 7.52994 7.46945C7.23994 7.17945 6.75994 7.17945 6.46994 7.46945Z" fill="#091230"/>
<path d="M12 8.25H9C8.59 8.25 8.25 8.59 8.25 9C8.25 9.41 8.59 9.75 9 9.75H12C12.41 9.75 12.75 9.41 12.75 9C12.75 8.59 12.41 8.25 12 8.25Z" fill="#091230"/>
<path d="M6.46994 12.4695L4.99994 13.9395L4.52994 13.4695C4.23994 13.1795 3.75994 13.1795 3.46994 13.4695C3.17994 13.7595 3.17994 14.2395 3.46994 14.5295L4.46994 15.5295C4.61994 15.6795 4.80994 15.7495 4.99994 15.7495C5.18994 15.7495 5.37994 15.6795 5.52994 15.5295L7.52994 13.5295C7.81994 13.2395 7.81994 12.7595 7.52994 12.4695C7.23994 12.1795 6.75994 12.1795 6.46994 12.4695Z" fill="#091230"/>
<path d="M12 13.25H9C8.59 13.25 8.25 13.59 8.25 14C8.25 14.41 8.59 14.75 9 14.75H12C12.41 14.75 12.75 14.41 12.75 14C12.75 13.59 12.41 13.25 12 13.25Z" fill="#091230"/>
</svg>
