<svg width="24" height="24" viewBox="0 0 24 24" fill="none" xmlns="http://www.w3.org/2000/svg">
<path d="M18 5.25H6C3.93 5.25 2.25 6.93 2.25 9V15C2.25 17.07 3.93 18.75 6 18.75H18C20.07 18.75 21.75 17.07 21.75 15V9C21.75 6.93 20.07 5.25 18 5.25ZM6 6.75H18C19.24 6.75 20.25 7.76 20.25 9V9.25H3.75V9C3.75 7.76 4.76 6.75 6 6.75ZM18 17.25H6C4.76 17.25 3.75 16.24 3.75 15V10.75H20.25V15C20.25 16.24 19.24 17.25 18 17.25Z" fill="#091230"/>
<path d="M18 13.25H15C14.59 13.25 14.25 13.59 14.25 14C14.25 14.41 14.59 14.75 15 14.75H18C18.41 14.75 18.75 14.41 18.75 14C18.75 13.59 18.41 13.25 18 13.25Z" fill="#091230"/>
</svg>
