<svg width="38" height="76" viewBox="0 0 38 76" fill="none" xmlns="http://www.w3.org/2000/svg">
<path d="M37.9048 7.52156C37.7112 7.05453 37.2554 6.75 36.75 6.75H33.5176L31.3839 4.61609C30.8956 4.12797 30.1043 4.12797 29.6161 4.61609L27.4823 6.75H24.25C23.7445 6.75 23.2887 7.05453 23.0951 7.52156C22.9015 7.98859 23.0086 8.52625 23.3659 8.88375L27.1159 12.6337C27.3506 12.8683 27.6684 13 28 13H33C33.3315 13 33.6494 12.8683 33.8839 12.6339L37.6339 8.88391C37.9912 8.52641 38.0983 7.98875 37.9048 7.52156Z" fill="#5FAA46"/>
<path d="M38 13C38 10.9289 36.3211 9.25 34.25 9.25H26.75C24.6789 9.25 23 10.9289 23 13C23 13.8025 23.252 14.5461 23.6814 15.1559L28.4544 21.9372C28.9067 22.58 29.6544 23 30.5002 23C31.3459 23 32.0936 22.58 32.5459 21.9372L37.3189 15.1559C37.748 14.5461 38 13.8025 38 13Z" fill="#F04B37"/>
<path d="M32.5458 21.9372L37.3188 15.1559C37.748 14.5461 38 13.8025 38 13H31.75C31.0597 13 30.5 13.5597 30.5 14.25V23C31.3458 23 32.0934 22.58 32.5458 21.9372Z" fill="#E1322D"/>
<path d="M24.875 13C25.2202 13 25.5 12.7202 25.5 12.375C25.5 12.0298 25.2202 11.75 24.875 11.75C24.5298 11.75 24.25 12.0298 24.25 12.375C24.25 12.7202 24.5298 13 24.875 13Z" fill="#E1322D"/>
<path d="M29.875 13C30.2202 13 30.5 12.7202 30.5 12.375C30.5 12.0298 30.2202 11.75 29.875 11.75C29.5298 11.75 29.25 12.0298 29.25 12.375C29.25 12.7202 29.5298 13 29.875 13Z" fill="#E1322D"/>
<path d="M27.375 15.5C27.7202 15.5 28 15.2202 28 14.875C28 14.5298 27.7202 14.25 27.375 14.25C27.0298 14.25 26.75 14.5298 26.75 14.875C26.75 15.2202 27.0298 15.5 27.375 15.5Z" fill="#E1322D"/>
<path d="M29.875 18C30.2202 18 30.5 17.7202 30.5 17.375C30.5 17.0298 30.2202 16.75 29.875 16.75C29.5298 16.75 29.25 17.0298 29.25 17.375C29.25 17.7202 29.5298 18 29.875 18Z" fill="#E1322D"/>
<path d="M28 75.5H3C1.61922 75.5 0.5 74.3808 0.5 73V19.25C0.5 18.5597 1.05969 18 1.75 18H29.25C29.9403 18 30.5 18.5597 30.5 19.25V73C30.5 74.3808 29.3808 75.5 28 75.5Z" fill="#D7E6F0"/>
<path d="M5.5 18H3V73H5.5V18Z" fill="white"/>
<path d="M29.25 18H18C16.6192 18 15.5 19.1192 15.5 20.5V71.75C15.5 72.4403 14.9403 73 14.25 73H0.5C0.5 74.3806 1.61937 75.5 3 75.5H28C29.3808 75.5 30.5 74.3808 30.5 73V19.25C30.5 18.5597 29.9403 18 29.25 18Z" fill="#A5C3DC"/>
<path d="M30.5 23H0.5V70.5H30.5V23Z" fill="#F5826E"/>
<path d="M5.5 23H3V70.5H5.5V23Z" fill="#FFA08C"/>
<path d="M30.5 23H15.5V70.5H30.5V23Z" fill="#F04B37"/>
<path d="M10.5 18H5.5V23H10.5V18Z" fill="#A5C3DC"/>
<path d="M5.5 18H10.5V1.125C10.5 0.779844 10.2202 0.5 9.875 0.5H6.125C5.77984 0.5 5.5 0.779844 5.5 1.125V18Z" fill="#4182C3"/>
<path d="M5.5 18H8V0.5H6.125C5.77984 0.5 5.5 0.779844 5.5 1.125V18Z" fill="#64AFE1"/>
<path d="M10.5 18V13L5.5 18H10.5Z" fill="#A5C3DC"/>
<path d="M8 15.5L5.5 18H8V15.5Z" fill="#D7E6F0"/>
<path d="M5.5 13L10.5 8V3L5.5 8V13Z" fill="#A5C3DC"/>
<path d="M8 5.5L5.5 8V13L8 10.5V5.5Z" fill="#D7E6F0"/>
</svg>
