<svg width="451" height="460" viewBox="0 0 451 460" fill="none" xmlns="http://www.w3.org/2000/svg">
<path d="M225.5 460C350.038 460 451 357.023 451 230C451 102.977 350.038 0 225.5 0C100.962 0 0 102.977 0 230C0 357.023 100.962 460 225.5 460Z" fill="white"/>
<path d="M367.814 219.956C366.577 210.517 363.194 199.017 358.948 187.786C350.374 165.077 338.045 144.579 322.992 125.776C307.053 105.912 288.83 88.6247 266.998 75.6088C251.674 66.4686 235.486 59.8897 217.483 59.4416C203.821 59.113 190.877 61.7192 179.587 70.389C172.669 75.7059 166.994 81.9786 163.524 90.0809C155.939 107.682 158.297 124.23 169.154 139.665C170.597 141.719 170.567 142.734 168.393 144.049C154.343 152.607 142.468 163.659 132.635 176.981C120.928 192.827 113.145 210.525 109.316 229.993C107.347 240.007 106.351 250.11 106.988 260.341C107.142 262.969 106.212 264.358 103.811 265.434C96.4452 268.742 90.7565 274.178 87.0518 281.377C79.3131 296.401 79.9793 311.097 89.5191 325.234C97.829 337.585 115.583 344.574 130.614 339.862C134.085 338.772 136.193 339.31 138.617 342.267C149.921 356.074 163.802 366.626 179.675 374.31C197.737 383.07 216.846 387.371 236.943 387.154C250.327 387.012 263.337 384.795 275.974 380.62C292.55 375.117 307.39 366.193 320.884 355.029C340.439 338.832 354.87 318.782 363.121 294.378C371.035 270.9 372.478 246.892 367.814 219.956ZM339.773 260.841C334.985 276.986 326.58 291.032 314.961 303.04C304.03 314.331 291.481 323.27 276.911 329.027C266.829 333.015 256.382 335.165 245.524 335.524C232.192 335.964 219.365 333.739 207.006 328.773C190.679 322.209 177.061 311.911 166.321 297.708C165.406 296.491 164.505 295.289 163.561 294.086C163.422 293.915 163.158 293.818 162.968 293.676C153.399 301.912 144.686 303.197 135.988 297.648C128.542 292.907 124.574 282.908 126.822 274.387C129.165 265.486 136.076 258.459 147.82 258.444C142.87 233.816 145.85 210.316 158.099 188.413C170.304 166.571 188.38 151.83 211.985 143.436C211.238 143.168 210.777 142.899 210.308 142.854C198.66 141.749 190.335 135.64 186.352 124.588C182.86 114.858 184.646 105.389 191.053 97.2273C199.831 86.0484 211.831 82.8523 225.2 83.9277C240.363 85.1449 253.775 91.4699 266.31 99.826C292.345 117.173 312.442 140.218 327.297 167.945C333.982 180.378 338.909 193.566 341.72 207.583C345.33 225.542 344.986 243.285 339.773 260.841Z" fill="#E51755"/>
<path d="M310.114 263.656C297.631 294.497 270.014 302.42 250.788 302.42C246.681 302.42 242.954 302.054 239.857 301.487C234.381 300.456 230.742 295.109 231.745 289.531C232.741 283.96 237.946 280.249 243.423 281.242C244.924 281.511 278.822 287.059 291.495 255.793C293.619 250.558 299.498 248.057 304.645 250.222C309.784 252.395 312.237 258.407 310.114 263.656Z" fill="#E51755"/>
</svg>
