<svg width="71" height="70" viewBox="0 0 71 70" fill="none" xmlns="http://www.w3.org/2000/svg">
<rect x="0.120117" width="70" height="70" rx="35" fill="#E51755"/>
<path d="M56.9763 34.5209C57.6937 38.4059 57.4761 41.8818 56.2588 45.2731C55.0039 48.7271 52.7439 51.7673 49.7442 54.0371C47.6919 55.6687 45.3401 56.9217 42.8087 57.7323C40.8644 58.3393 38.8344 58.6583 36.7891 58.6784C33.734 58.7186 30.7106 58.0836 27.9547 56.8228C25.5161 55.7397 23.3553 54.1594 21.6243 52.1929C21.4956 52.004 21.3006 51.8653 21.0744 51.8016C20.8481 51.7379 20.6055 51.7535 20.3902 51.8455C18.0704 52.5311 15.3345 51.5141 14.0502 49.7316C12.5818 47.6886 12.479 45.5656 13.6724 43.3946C14.2303 42.3648 15.1437 41.551 16.2576 41.0911C16.4175 41.0444 16.5542 40.9438 16.6422 40.808C16.7302 40.6722 16.7635 40.5105 16.7359 40.3529C16.655 38.8823 16.7764 37.4079 17.0971 35.9675C17.6692 33.1878 18.896 30.569 20.6844 28.3096C22.1762 26.3965 24.0447 24.7802 26.185 23.5517C26.5198 23.3597 26.527 23.2157 26.3022 22.9164C24.6281 20.6882 24.267 18.2956 25.434 15.7543C25.9963 14.6124 26.8621 13.6314 27.9452 12.9092C29.6862 11.6546 31.6832 11.2775 33.7925 11.3232C36.5691 11.3872 39.0539 12.3379 41.4264 13.6565C44.7961 15.5441 47.6061 18.0396 50.0623 20.9213C52.4004 23.606 54.2736 26.6311 55.6107 29.8818C56.2636 31.4952 56.7873 33.1566 56.9763 34.5209ZM25.0275 45.008C25.062 45.0245 25.0942 45.0453 25.1231 45.0697C25.2714 45.248 25.4149 45.4262 25.5608 45.6067C27.2237 47.6794 29.452 49.2742 32.0012 50.2161C35.5581 51.5483 39.5077 51.5614 43.0741 50.2527C45.3482 49.3937 47.4032 48.0791 49.1009 46.3974C50.9315 44.6514 52.2829 42.5006 53.035 40.1358C53.8335 37.5679 53.9396 34.8487 53.3435 32.2311C52.8943 30.1722 52.1245 28.1894 51.0596 26.3488C48.7726 22.2616 45.4509 18.7867 41.3977 16.2411C39.4031 15.0025 37.2842 14.0655 34.8831 13.8827C32.7689 13.725 30.8653 14.1981 29.4758 15.8572C28.4617 17.0661 28.1795 18.4738 28.732 19.9158C29.3586 21.5566 30.6811 22.4616 32.525 22.6284C32.6166 22.6477 32.7057 22.6769 32.7905 22.7153C29.0548 23.9607 26.1922 26.1432 24.2574 29.3882C22.3226 32.6333 21.8467 36.1252 22.6287 39.7793C20.7705 39.7793 19.6752 40.8237 19.3021 42.1446C19.142 42.7931 19.195 43.4731 19.4539 44.0918C19.7128 44.7105 20.165 45.2379 20.749 45.6022C22.1337 46.4203 23.5136 46.2306 25.0275 45.008Z" fill="white"/>
<path fill-rule="evenodd" clip-rule="evenodd" d="M46.8063 38.9209C47.5919 39.2687 47.9468 40.1875 47.599 40.973C46.0846 44.3937 41.1891 47.9989 35.1758 45.3174C34.3912 44.9675 34.0388 44.0478 34.3887 43.2632C34.7385 42.4785 35.6583 42.1261 36.4429 42.476C40.5716 44.3171 43.7897 41.8922 44.7542 39.7136C45.102 38.928 46.0208 38.5731 46.8063 38.9209Z" fill="white"/>
</svg>
